<svg width="17" height="22" viewBox="0 0 17 22" fill="none" xmlns="http://www.w3.org/2000/svg">
<path d="M8.49969 0.5C4.22211 0.5 0.742188 3.97992 0.742188 8.2575C0.742188 9.66571 1.37374 11.1802 1.40021 11.2441C1.60418 11.7283 2.00666 12.4803 2.29688 12.9211L7.61579 20.9802C7.83345 21.3106 8.15562 21.5 8.49969 21.5C8.84375 21.5 9.16592 21.3106 9.38358 20.9807L14.7029 12.9211C14.9936 12.4803 15.3956 11.7283 15.5996 11.2441C15.6261 11.1807 16.2572 9.66617 16.2572 8.2575C16.2572 3.97992 12.7773 0.5 8.49969 0.5ZM14.7582 10.89C14.5761 11.324 14.2014 12.0235 13.9409 12.4187L8.62152 20.4783C8.51657 20.6375 8.48326 20.6375 8.3783 20.4783L3.05894 12.4187C2.79838 12.0235 2.42374 11.3235 2.24167 10.8896C2.23391 10.8709 1.65483 9.47679 1.65483 8.2575C1.65483 4.48325 4.72543 1.41265 8.49969 1.41265C12.2739 1.41265 15.3445 4.48325 15.3445 8.2575C15.3445 9.47862 14.7641 10.8763 14.7582 10.89Z" fill="#FE1E01"/>
<path d="M8.49949 4.15088C6.23476 4.15088 4.39258 5.99351 4.39258 8.25779C4.39258 10.5221 6.23476 12.3647 8.49949 12.3647C10.7642 12.3647 12.6064 10.5221 12.6064 8.25779C12.6064 5.99351 10.7642 4.15088 8.49949 4.15088ZM8.49949 11.4521C6.73854 11.4521 5.30523 10.0192 5.30523 8.25779C5.30523 6.49638 6.73854 5.06353 8.49949 5.06353C10.2604 5.06353 11.6938 6.49638 11.6938 8.25779C11.6938 10.0192 10.2604 11.4521 8.49949 11.4521Z" fill="#FE1E01"/>
</svg>
