<svg width="370" height="90" viewBox="0 0 370 90" fill="none" xmlns="http://www.w3.org/2000/svg">
<mask id="mask0_3_8494" style="mask-type:alpha" maskUnits="userSpaceOnUse" x="0" y="0" width="370" height="90">
<rect width="370" height="90" fill="#FCD571"/>
</mask>
<g mask="url(#mask0_3_8494)">
<path d="M469.97 0V26.1316L444.703 0H469.97ZM378.268 120.969L353 94.8378V120.969H378.268ZM432.231 120.969L353 39.0599V72.5266L399.871 121H432.231V120.969ZM390.769 0L470 81.9401V48.4734L423.129 0H390.769ZM353 0V16.7487L453.805 121H470V104.251L369.195 0H353Z" fill="#E7E7E7"/>
<path d="M14 116.97L-12.1316 116.97L14 91.7027L14 116.97ZM-106.969 25.2677L-80.8378 -4.14549e-06L-106.969 -5.28774e-06L-106.969 25.2677ZM-106.969 79.2314L-25.0599 -1.70736e-06L-58.5266 -3.17024e-06L-107 46.8709L-107 79.2314L-106.969 79.2314ZM14 37.7686L-67.9401 117L-34.4734 117L14 70.1291L14 37.7686ZM14 0L-2.74867 -7.32108e-07L-107 100.805L-107 117L-90.2513 117L14 16.195L14 0Z" fill="#E7E7E7"/>
</g>
<path d="M44.5 22.8H36.175L36.2 37H32.175V19.5H44.525L44.5 22.8ZM58.8266 23.55L52.7516 37.825C52.1349 39.375 51.3682 40.4667 50.4516 41.1C49.5516 41.7333 48.4599 42.05 47.1766 42.05C46.4766 42.05 45.7849 41.9417 45.1016 41.725C44.4182 41.5083 43.8599 41.2083 43.4266 40.825L44.8516 38.05C45.1516 38.3167 45.4932 38.525 45.8766 38.675C46.2766 38.825 46.6682 38.9 47.0516 38.9C47.5849 38.9 48.0182 38.7667 48.3516 38.5C48.6849 38.25 48.9849 37.825 49.2516 37.225L49.3016 37.1L43.4766 23.55H47.5016L51.2766 32.675L55.0766 23.55H58.8266ZM66.7418 37.2C65.3085 37.2 64.0168 36.9083 62.8668 36.325C61.7335 35.725 60.8418 34.9 60.1918 33.85C59.5585 32.8 59.2418 31.6083 59.2418 30.275C59.2418 28.9417 59.5585 27.75 60.1918 26.7C60.8418 25.65 61.7335 24.8333 62.8668 24.25C64.0168 23.65 65.3085 23.35 66.7418 23.35C68.1585 23.35 69.3918 23.65 70.4418 24.25C71.5085 24.8333 72.2835 25.675 72.7668 26.775L69.7418 28.4C69.0418 27.1667 68.0335 26.55 66.7168 26.55C65.7001 26.55 64.8585 26.8833 64.1918 27.55C63.5251 28.2167 63.1918 29.125 63.1918 30.275C63.1918 31.425 63.5251 32.3333 64.1918 33C64.8585 33.6667 65.7001 34 66.7168 34C68.0501 34 69.0585 33.3833 69.7418 32.15L72.7668 33.8C72.2835 34.8667 71.5085 35.7 70.4418 36.3C69.3918 36.9 68.1585 37.2 66.7418 37.2ZM88.0408 30.325C88.0408 30.375 88.0158 30.725 87.9658 31.375H77.7908C77.9742 32.2083 78.4075 32.8667 79.0908 33.35C79.7742 33.8333 80.6242 34.075 81.6408 34.075C82.3408 34.075 82.9575 33.975 83.4908 33.775C84.0408 33.5583 84.5492 33.225 85.0158 32.775L87.0908 35.025C85.8242 36.475 83.9742 37.2 81.5408 37.2C80.0242 37.2 78.6825 36.9083 77.5158 36.325C76.3492 35.725 75.4492 34.9 74.8158 33.85C74.1825 32.8 73.8658 31.6083 73.8658 30.275C73.8658 28.9583 74.1742 27.775 74.7908 26.725C75.4242 25.6583 76.2825 24.8333 77.3658 24.25C78.4658 23.65 79.6908 23.35 81.0408 23.35C82.3575 23.35 83.5492 23.6333 84.6158 24.2C85.6825 24.7667 86.5158 25.5833 87.1158 26.65C87.7325 27.7 88.0408 28.925 88.0408 30.325ZM81.0658 26.3C80.1825 26.3 79.4408 26.55 78.8408 27.05C78.2408 27.55 77.8742 28.2333 77.7408 29.1H84.3658C84.2325 28.25 83.8658 27.575 83.2658 27.075C82.6658 26.5583 81.9325 26.3 81.0658 26.3ZM91.0303 23.55H94.9053V28.8H100.755V23.55H104.655V37H100.755V31.975H94.9053V37H91.0303V23.55ZM108.389 23.55H112.264V31.55L118.814 23.55H122.389V37H118.514V29L111.989 37H108.389V23.55ZM138.238 23.55V37H134.338V32C133.204 32.5667 131.954 32.85 130.588 32.85C128.771 32.85 127.396 32.4417 126.463 31.625C125.546 30.7917 125.088 29.5083 125.088 27.775V23.55H128.988V27.525C128.988 28.3417 129.196 28.9333 129.613 29.3C130.046 29.6667 130.663 29.85 131.463 29.85C132.479 29.85 133.438 29.6333 134.338 29.2V23.55H138.238ZM141.982 23.55H145.857V28.8H151.707V23.55H155.607V37H151.707V31.975H145.857V37H141.982V23.55ZM166.416 27.85C168.166 27.8667 169.491 28.2583 170.391 29.025C171.291 29.7917 171.741 30.8917 171.741 32.325C171.741 33.825 171.232 34.9833 170.216 35.8C169.199 36.6167 167.757 37.025 165.891 37.025L159.341 37V23.55H163.216V27.85H166.416ZM173.191 23.55H177.066V37H173.191V23.55ZM165.541 34.25C166.291 34.2667 166.866 34.1083 167.266 33.775C167.666 33.4417 167.866 32.9417 167.866 32.275C167.866 31.625 167.666 31.15 167.266 30.85C166.882 30.55 166.307 30.3917 165.541 30.375L163.216 30.35V34.25H165.541ZM180.825 23.55H184.7V31.55L191.25 23.55H194.825V37H190.95V29L184.425 37H180.825V23.55ZM187.575 22.1C184.642 22.1 183.167 20.8083 183.15 18.225H185.7C185.717 18.8083 185.875 19.2667 186.175 19.6C186.492 19.9167 186.95 20.075 187.55 20.075C188.15 20.075 188.609 19.9167 188.925 19.6C189.259 19.2667 189.425 18.8083 189.425 18.225H192.025C192.009 20.8083 190.525 22.1 187.575 22.1ZM211.579 31.9H209.554V37H205.654V23.55H209.554V28.775H211.654L215.304 23.55H219.454L214.754 30L219.779 37H215.179L211.579 31.9ZM229.619 23.35C230.869 23.35 232.003 23.6417 233.019 24.225C234.053 24.7917 234.861 25.6 235.444 26.65C236.028 27.6833 236.319 28.8917 236.319 30.275C236.319 31.6583 236.028 32.875 235.444 33.925C234.861 34.9583 234.053 35.7667 233.019 36.35C232.003 36.9167 230.869 37.2 229.619 37.2C227.903 37.2 226.553 36.6583 225.569 35.575V41.85H221.669V23.55H225.394V25.1C226.361 23.9333 227.769 23.35 229.619 23.35ZM228.944 34C229.944 34 230.761 33.6667 231.394 33C232.044 32.3167 232.369 31.4083 232.369 30.275C232.369 29.1417 232.044 28.2417 231.394 27.575C230.761 26.8917 229.944 26.55 228.944 26.55C227.944 26.55 227.119 26.8917 226.469 27.575C225.836 28.2417 225.519 29.1417 225.519 30.275C225.519 31.4083 225.836 32.3167 226.469 33C227.119 33.6667 227.944 34 228.944 34ZM244.058 23.35C246.141 23.35 247.741 23.85 248.858 24.85C249.975 25.8333 250.533 27.325 250.533 29.325V37H246.883V35.325C246.15 36.575 244.783 37.2 242.783 37.2C241.75 37.2 240.85 37.025 240.083 36.675C239.333 36.325 238.758 35.8417 238.358 35.225C237.958 34.6083 237.758 33.9083 237.758 33.125C237.758 31.875 238.225 30.8917 239.158 30.175C240.108 29.4583 241.566 29.1 243.533 29.1H246.633C246.633 28.25 246.375 27.6 245.858 27.15C245.341 26.6833 244.566 26.45 243.533 26.45C242.816 26.45 242.108 26.5667 241.408 26.8C240.725 27.0167 240.141 27.3167 239.658 27.7L238.258 24.975C238.991 24.4583 239.866 24.0583 240.883 23.775C241.916 23.4917 242.975 23.35 244.058 23.35ZM243.758 34.575C244.425 34.575 245.016 34.425 245.533 34.125C246.05 33.8083 246.416 33.35 246.633 32.75V31.375H243.958C242.358 31.375 241.558 31.9 241.558 32.95C241.558 33.45 241.75 33.85 242.133 34.15C242.533 34.4333 243.075 34.575 243.758 34.575ZM253.921 23.55H257.796V28.8H263.646V23.55H267.546V37H263.646V31.975H257.796V37H253.921V23.55ZM32.075 55.5H36.125V69.7H44.9V73H32.075V55.5ZM46.8879 59.55H50.7879V73H46.8879V59.55ZM48.8379 57.675C48.1212 57.675 47.5379 57.4667 47.0879 57.05C46.6379 56.6333 46.4129 56.1167 46.4129 55.5C46.4129 54.8833 46.6379 54.3667 47.0879 53.95C47.5379 53.5333 48.1212 53.325 48.8379 53.325C49.5546 53.325 50.1379 53.525 50.5879 53.925C51.0379 54.325 51.2629 54.825 51.2629 55.425C51.2629 56.075 51.0379 56.6167 50.5879 57.05C50.1379 57.4667 49.5546 57.675 48.8379 57.675ZM67.5824 66.325C67.5824 66.375 67.5574 66.725 67.5074 67.375H57.3324C57.5158 68.2083 57.9491 68.8667 58.6324 69.35C59.3158 69.8333 60.1658 70.075 61.1824 70.075C61.8824 70.075 62.4991 69.975 63.0324 69.775C63.5824 69.5583 64.0908 69.225 64.5574 68.775L66.6324 71.025C65.3658 72.475 63.5158 73.2 61.0824 73.2C59.5658 73.2 58.2241 72.9083 57.0574 72.325C55.8908 71.725 54.9908 70.9 54.3574 69.85C53.7241 68.8 53.4074 67.6083 53.4074 66.275C53.4074 64.9583 53.7158 63.775 54.3324 62.725C54.9658 61.6583 55.8241 60.8333 56.9074 60.25C58.0074 59.65 59.2324 59.35 60.5824 59.35C61.8991 59.35 63.0908 59.6333 64.1574 60.2C65.2241 60.7667 66.0574 61.5833 66.6574 62.65C67.2741 63.7 67.5824 64.925 67.5824 66.325ZM60.6074 62.3C59.7241 62.3 58.9824 62.55 58.3824 63.05C57.7824 63.55 57.4158 64.2333 57.2824 65.1H63.9074C63.7741 64.25 63.4074 63.575 62.8074 63.075C62.2074 62.5583 61.4741 62.3 60.6074 62.3ZM78.1289 59.35C79.3789 59.35 80.5122 59.6417 81.5289 60.225C82.5622 60.7917 83.3706 61.6 83.9539 62.65C84.5372 63.6833 84.8289 64.8917 84.8289 66.275C84.8289 67.6583 84.5372 68.875 83.9539 69.925C83.3706 70.9583 82.5622 71.7667 81.5289 72.35C80.5122 72.9167 79.3789 73.2 78.1289 73.2C76.2789 73.2 74.8706 72.6167 73.9039 71.45V73H70.1789V54.45H74.0789V60.975C75.0622 59.8917 76.4122 59.35 78.1289 59.35ZM77.4539 70C78.4539 70 79.2706 69.6667 79.9039 69C80.5539 68.3167 80.8789 67.4083 80.8789 66.275C80.8789 65.1417 80.5539 64.2417 79.9039 63.575C79.2706 62.8917 78.4539 62.55 77.4539 62.55C76.4539 62.55 75.6289 62.8917 74.9789 63.575C74.3456 64.2417 74.0289 65.1417 74.0289 66.275C74.0289 67.4083 74.3456 68.3167 74.9789 69C75.6289 69.6667 76.4539 70 77.4539 70ZM95.6146 59.35C97.2813 59.35 98.623 59.85 99.6396 60.85C100.673 61.85 101.19 63.3333 101.19 65.3V73H97.2896V65.9C97.2896 64.8333 97.0563 64.0417 96.5896 63.525C96.123 62.9917 95.448 62.725 94.5646 62.725C93.5813 62.725 92.798 63.0333 92.2146 63.65C91.6313 64.25 91.3396 65.15 91.3396 66.35V73H87.4396V54.45H91.3396V60.95C91.8563 60.4333 92.4813 60.0417 93.2146 59.775C93.948 59.4917 94.748 59.35 95.6146 59.35ZM118.046 66.325C118.046 66.375 118.021 66.725 117.971 67.375H107.796C107.98 68.2083 108.413 68.8667 109.096 69.35C109.78 69.8333 110.63 70.075 111.646 70.075C112.346 70.075 112.963 69.975 113.496 69.775C114.046 69.5583 114.555 69.225 115.021 68.775L117.096 71.025C115.83 72.475 113.98 73.2 111.546 73.2C110.03 73.2 108.688 72.9083 107.521 72.325C106.355 71.725 105.455 70.9 104.821 69.85C104.188 68.8 103.871 67.6083 103.871 66.275C103.871 64.9583 104.18 63.775 104.796 62.725C105.43 61.6583 106.288 60.8333 107.371 60.25C108.471 59.65 109.696 59.35 111.046 59.35C112.363 59.35 113.555 59.6333 114.621 60.2C115.688 60.7667 116.521 61.5833 117.121 62.65C117.738 63.7 118.046 64.925 118.046 66.325ZM111.071 62.3C110.188 62.3 109.446 62.55 108.846 63.05C108.246 63.55 107.88 64.2333 107.746 65.1H114.371C114.238 64.25 113.871 63.575 113.271 63.075C112.671 62.5583 111.938 62.3 111.071 62.3ZM124.368 61.325C124.834 60.675 125.459 60.1833 126.243 59.85C127.043 59.5167 127.959 59.35 128.993 59.35V62.95C128.559 62.9167 128.268 62.9 128.118 62.9C127.001 62.9 126.126 63.2167 125.493 63.85C124.859 64.4667 124.543 65.4 124.543 66.65V73H120.643V59.55H124.368V61.325ZM135.037 61.325C135.503 60.675 136.128 60.1833 136.912 59.85C137.712 59.5167 138.628 59.35 139.662 59.35V62.95C139.228 62.9167 138.937 62.9 138.787 62.9C137.67 62.9 136.795 63.2167 136.162 63.85C135.528 64.4667 135.212 65.4 135.212 66.65V73H131.312V59.55H135.037V61.325ZM149.433 55.5H153.483V69.7H162.258V73H149.433V55.5ZM175.671 73L172.296 68.125H172.096H168.571V73H164.521V55.5H172.096C173.646 55.5 174.988 55.7583 176.121 56.275C177.271 56.7917 178.155 57.525 178.771 58.475C179.388 59.425 179.696 60.55 179.696 61.85C179.696 63.15 179.38 64.275 178.746 65.225C178.13 66.1583 177.246 66.875 176.096 67.375L180.021 73H175.671ZM175.596 61.85C175.596 60.8667 175.28 60.1167 174.646 59.6C174.013 59.0667 173.088 58.8 171.871 58.8H168.571V64.9H171.871C173.088 64.9 174.013 64.6333 174.646 64.1C175.28 63.5667 175.596 62.8167 175.596 61.85ZM195.635 55.5V73H191.585V58.75H188.085V55.5H195.635ZM212.375 55.5V58.125L205.875 73H201.475L207.75 58.8H201.95V61.65H198.35V55.5H212.375ZM219.763 62.075C222.23 62.075 224.046 62.5667 225.213 63.55C226.396 64.5333 226.988 65.85 226.988 67.5C226.988 68.5667 226.721 69.5417 226.188 70.425C225.655 71.2917 224.838 71.9917 223.738 72.525C222.655 73.0417 221.313 73.3 219.713 73.3C218.48 73.3 217.263 73.1417 216.063 72.825C214.88 72.4917 213.871 72.025 213.038 71.425L214.638 68.325C215.305 68.825 216.071 69.2167 216.938 69.5C217.805 69.7667 218.696 69.9 219.613 69.9C220.63 69.9 221.43 69.7 222.013 69.3C222.596 68.9 222.888 68.3417 222.888 67.625C222.888 66.875 222.58 66.3083 221.963 65.925C221.363 65.5417 220.313 65.35 218.813 65.35H214.338L215.238 55.5H225.913V58.75H218.613L218.338 62.075H219.763ZM236.131 73.3C234.681 73.3 233.39 72.9417 232.256 72.225C231.123 71.5083 230.231 70.475 229.581 69.125C228.948 67.7583 228.631 66.1333 228.631 64.25C228.631 62.3667 228.948 60.75 229.581 59.4C230.231 58.0333 231.123 56.9917 232.256 56.275C233.39 55.5583 234.681 55.2 236.131 55.2C237.581 55.2 238.873 55.5583 240.006 56.275C241.14 56.9917 242.023 58.0333 242.656 59.4C243.306 60.75 243.631 62.3667 243.631 64.25C243.631 66.1333 243.306 67.7583 242.656 69.125C242.023 70.475 241.14 71.5083 240.006 72.225C238.873 72.9417 237.581 73.3 236.131 73.3ZM236.131 69.875C237.198 69.875 238.031 69.4167 238.631 68.5C239.248 67.5833 239.556 66.1667 239.556 64.25C239.556 62.3333 239.248 60.9167 238.631 60C238.031 59.0833 237.198 58.625 236.131 58.625C235.081 58.625 234.248 59.0833 233.631 60C233.031 60.9167 232.731 62.3333 232.731 64.25C232.731 66.1667 233.031 67.5833 233.631 68.5C234.248 69.4167 235.081 69.875 236.131 69.875Z" fill="#2D2D2D"/>
</svg>
