<svg width="530" height="122" viewBox="0 0 530 122" fill="none" xmlns="http://www.w3.org/2000/svg">
<path d="M8.3 28L8.3 27H7.3V28H8.3ZM24.5 28H25.5V27H24.5V28ZM24.5 84.8H23.5V85.8H24.5V84.8ZM59.6 84.8H60.6V83.8H59.6V84.8ZM59.6 98V99H60.6V98H59.6ZM8.3 98H7.3V99H8.3V98ZM8.3 29L24.5 29V27L8.3 27L8.3 29ZM23.5 28L23.5 84.8H25.5L25.5 28H23.5ZM24.5 85.8L59.6 85.8V83.8L24.5 83.8V85.8ZM58.6 84.8V98H60.6V84.8H58.6ZM59.6 97L8.3 97V99L59.6 99V97ZM9.3 98L9.3 28H7.3L7.3 98H9.3ZM68.6516 28V27H67.6516V28H68.6516ZM84.8516 28H85.8516V27H84.8516V28ZM84.8516 98V99H85.8516V98H84.8516ZM68.6516 98H67.6516V99H68.6516V98ZM68.6516 29L84.8516 29V27L68.6516 27V29ZM83.8516 28L83.8516 98H85.8516L85.8516 28H83.8516ZM84.8516 97H68.6516V99H84.8516V97ZM69.6516 98L69.6516 28H67.6516L67.6516 98H69.6516ZM155.664 85H156.664V84H155.664V85ZM155.664 98V99H156.664V98H155.664ZM101.464 98H100.464V99H101.464V98ZM101.464 28V27H100.464V28H101.464ZM154.364 28H155.364V27H154.364V28ZM154.364 41V42L155.364 42V41L154.364 41ZM117.564 41V40H116.564V41H117.564ZM117.564 56.2H116.564V57.2H117.564V56.2ZM150.064 56.2H151.064V55.2H150.064V56.2ZM150.064 68.8V69.8H151.064V68.8H150.064ZM117.564 68.8V67.8H116.564V68.8H117.564ZM117.564 85H116.564V86H117.564V85ZM154.664 85L154.664 98H156.664L156.664 85H154.664ZM155.664 97L101.464 97V99L155.664 99V97ZM102.464 98L102.464 28H100.464L100.464 98H102.464ZM101.464 29L154.364 29V27L101.464 27V29ZM153.364 28V41L155.364 41V28H153.364ZM154.364 40H117.564V42H154.364V40ZM116.564 41L116.564 56.2H118.564L118.564 41H116.564ZM117.564 57.2H150.064V55.2H117.564V57.2ZM149.064 56.2V68.8H151.064V56.2H149.064ZM150.064 67.8L117.564 67.8V69.8L150.064 69.8V67.8ZM116.564 68.8V85H118.564V68.8H116.564ZM117.564 86L155.664 86V84L117.564 84V86ZM219.954 61.6L219.491 60.7138L217.36 61.8275L219.652 62.5533L219.954 61.6ZM229.354 68L228.556 68.6029L228.563 68.6114L229.354 68ZM225.554 93.1L226.122 93.923L226.124 93.9214L225.554 93.1ZM168.554 98H167.554V99H168.554V98ZM168.554 28V27H167.554V28H168.554ZM222.354 32.9L221.769 33.7113L221.775 33.7153L222.354 32.9ZM226.754 55.3L225.906 54.77L225.901 54.7777L225.896 54.7855L226.754 55.3ZM184.654 40.2V39.2H183.654V40.2H184.654ZM184.654 56.7H183.654V57.7H184.654V56.7ZM209.854 42.3L209.293 43.1279L209.302 43.1342L209.312 43.1403L209.854 42.3ZM213.154 83.7L212.617 82.8563L212.605 82.864L213.154 83.7ZM184.654 68.5V67.5H183.654V68.5H184.654ZM184.654 85.8H183.654V86.8H184.654V85.8ZM219.652 62.5533C223.478 63.765 226.429 65.7872 228.556 68.6028L230.152 67.3972C227.746 64.2128 224.43 61.9683 220.256 60.6467L219.652 62.5533ZM228.563 68.6114C230.672 71.3412 231.754 74.7491 231.754 78.9H233.754C233.754 74.3843 232.569 70.5255 230.145 67.3885L228.563 68.6114ZM231.754 78.9C231.754 84.7249 229.499 89.1429 224.984 92.2786L226.124 93.9214C231.209 90.3904 233.754 85.3417 233.754 78.9H231.754ZM224.986 92.277C220.492 95.3787 213.794 97 204.754 97V99C213.98 99 221.15 97.3546 226.122 93.923L224.986 92.277ZM204.754 97H168.554V99H204.754V97ZM169.554 98L169.554 28H167.554L167.554 98H169.554ZM168.554 29L202.754 29V27L168.554 27V29ZM202.754 29C211.181 29 217.475 30.6166 221.769 33.7113L222.939 32.0887C218.167 28.6501 211.393 27 202.754 27V29ZM221.775 33.7153C226.113 36.7961 228.254 40.9268 228.254 46.2H230.254C230.254 40.2732 227.795 35.5372 222.933 32.0847L221.775 33.7153ZM228.254 46.2C228.254 49.4284 227.465 52.2752 225.906 54.77L227.602 55.83C229.376 52.9915 230.254 49.7716 230.254 46.2H228.254ZM225.896 54.7855C224.397 57.2841 222.272 59.26 219.491 60.7138L220.417 62.4862C223.503 60.8733 225.911 58.6492 227.611 55.8145L225.896 54.7855ZM183.654 40.2V56.7H185.654V40.2H183.654ZM184.654 57.7L200.754 57.7V55.7L184.654 55.7V57.7ZM200.754 57.7C204.844 57.7 208.11 56.9891 210.415 55.4279L209.293 53.7721C207.464 55.0109 204.664 55.7 200.754 55.7V57.7ZM210.415 55.4279C212.785 53.822 213.954 51.428 213.954 48.4H211.954C211.954 50.8387 211.056 52.578 209.293 53.7721L210.415 55.4279ZM213.954 48.4C213.954 45.3717 212.784 43.0002 210.396 41.4597L209.312 43.1403C211.057 44.2664 211.954 45.9616 211.954 48.4H213.954ZM210.415 41.4721C208.11 39.9109 204.844 39.2 200.754 39.2V41.2C204.664 41.2 207.464 41.8891 209.293 43.1279L210.415 41.4721ZM200.754 39.2L184.654 39.2V41.2L200.754 41.2V39.2ZM203.554 86.8C207.898 86.8 211.33 86.093 213.703 84.536L212.605 82.864C210.711 84.1069 207.743 84.8 203.554 84.8V86.8ZM213.691 84.5437C216.219 82.9345 217.454 80.4247 217.454 77.2H215.454C215.454 79.8419 214.488 81.6655 212.617 82.8563L213.691 84.5437ZM217.454 77.2C217.454 74.0136 216.25 71.5062 213.788 69.8459C211.396 68.233 207.935 67.5 203.554 67.5V69.5C207.773 69.5 210.761 70.217 212.67 71.5041C214.508 72.7438 215.454 74.5864 215.454 77.2H217.454ZM203.554 67.5H184.654V69.5H203.554V67.5ZM183.654 68.5V85.8H185.654V68.5H183.654ZM184.654 86.8H203.554V84.8H184.654V86.8ZM309.219 28H310.219V27H309.219V28ZM309.219 98V99L310.219 99V98L309.219 98ZM293.019 98H292.019V99H293.019V98ZM293.019 69.3H294.019V68.3H293.019V69.3ZM261.219 69.3V68.3H260.219V69.3H261.219ZM261.219 98V99H262.219V98H261.219ZM245.019 98H244.019V99H245.019V98ZM245.019 28V27H244.019V28H245.019ZM261.219 28H262.219V27H261.219V28ZM261.219 55.6H260.219V56.6H261.219V55.6ZM293.019 55.6V56.6H294.019V55.6H293.019ZM293.019 28V27H292.019V28H293.019ZM308.219 28V98L310.219 98V28H308.219ZM309.219 97H293.019V99H309.219V97ZM294.019 98V69.3H292.019V98H294.019ZM293.019 68.3H261.219V70.3H293.019V68.3ZM260.219 69.3V98H262.219V69.3H260.219ZM261.219 97H245.019V99H261.219V97ZM246.019 98L246.019 28H244.019L244.019 98H246.019ZM245.019 29L261.219 29V27L245.019 27V29ZM260.219 28V55.6H262.219V28H260.219ZM261.219 56.6L293.019 56.6V54.6L261.219 54.6V56.6ZM294.019 55.6V28H292.019V55.6H294.019ZM293.019 29L309.219 29V27L293.019 27V29ZM379.98 85H380.98V84H379.98V85ZM379.98 98V99H380.98V98H379.98ZM325.78 98H324.78V99H325.78V98ZM325.78 28V27H324.78V28H325.78ZM378.68 28H379.68V27H378.68V28ZM378.68 41V42H379.68V41H378.68ZM341.88 41V40H340.88V41H341.88ZM341.88 56.2H340.88V57.2H341.88V56.2ZM374.38 56.2H375.38V55.2H374.38V56.2ZM374.38 68.8V69.8H375.38V68.8H374.38ZM341.88 68.8V67.8H340.88V68.8H341.88ZM341.88 85H340.88V86H341.88V85ZM378.98 85V98H380.98V85H378.98ZM379.98 97H325.78V99H379.98V97ZM326.78 98V28H324.78V98H326.78ZM325.78 29L378.68 29V27L325.78 27V29ZM377.68 28V41H379.68V28H377.68ZM378.68 40L341.88 40V42L378.68 42V40ZM340.88 41V56.2H342.88V41H340.88ZM341.88 57.2H374.38V55.2H341.88V57.2ZM373.38 56.2V68.8H375.38V56.2H373.38ZM374.38 67.8H341.88V69.8H374.38V67.8ZM340.88 68.8V85H342.88V68.8H340.88ZM341.88 86H379.98V84H341.88V86ZM437.47 98L436.648 98.5692L436.946 99H437.47V98ZM423.97 78.5L424.793 77.9308L424.494 77.5H423.97V78.5ZM409.07 78.5V77.5H408.07V78.5H409.07ZM409.07 98V99H410.07V98H409.07ZM392.87 98H391.87V99H392.87V98ZM392.87 28V27H391.87V28H392.87ZM439.27 31.1L438.855 32.0099L438.861 32.0122L439.27 31.1ZM449.77 66.9L448.938 66.3453L448.936 66.3487L449.77 66.9ZM439.17 75.5L438.772 74.5829L437.651 75.0701L438.35 76.0722L439.17 75.5ZM454.87 98V99H456.787L455.69 97.4278L454.87 98ZM433.37 44.4L432.726 45.1649L432.732 45.1699L432.738 45.1749L433.37 44.4ZM409.07 41.2V40.2H408.07V41.2H409.07ZM409.07 65.6H408.07V66.6H409.07V65.6ZM433.37 62.4L434.014 63.1649L433.37 62.4ZM438.293 97.4308L424.793 77.9308L423.148 79.0692L436.648 98.5692L438.293 97.4308ZM423.97 77.5H423.17V79.5H423.97V77.5ZM423.17 77.5H409.07V79.5H423.17V77.5ZM408.07 78.5V98H410.07V78.5H408.07ZM409.07 97L392.87 97V99L409.07 99V97ZM393.87 98V28H391.87V98H393.87ZM392.87 29L423.17 29V27L392.87 27V29ZM423.17 29C429.261 29 434.48 30.0153 438.855 32.0099L439.685 30.1901C434.994 28.0514 429.479 27 423.17 27V29ZM438.861 32.0122C443.306 34.0093 446.681 36.8236 449.032 40.4445L450.709 39.3555C448.126 35.3764 444.435 32.3241 439.68 30.1878L438.861 32.0122ZM449.032 40.4445C451.378 44.0594 452.57 48.3639 452.57 53.4H454.57C454.57 48.036 453.296 43.3406 450.709 39.3555L449.032 40.4445ZM452.57 53.4C452.57 58.4308 451.347 62.7316 448.938 66.3453L450.602 67.4547C453.26 63.4684 454.57 58.7692 454.57 53.4H452.57ZM448.936 66.3487C446.589 69.9015 443.216 72.6505 438.772 74.5829L439.569 76.4171C444.324 74.3495 448.019 71.3652 450.605 67.4513L448.936 66.3487ZM438.35 76.0722L454.05 98.5722L455.69 97.4278L439.99 74.9278L438.35 76.0722ZM454.87 97H437.47V99H454.87V97ZM438.17 53.4C438.17 49.2337 436.816 45.9206 434.002 43.6251L432.738 45.1749C434.991 47.0127 436.17 49.6996 436.17 53.4H438.17ZM434.014 43.6351C431.233 41.2927 427.265 40.2 422.27 40.2V42.2C427.009 42.2 430.441 43.2407 432.726 45.1649L434.014 43.6351ZM422.27 40.2L409.07 40.2V42.2L422.27 42.2V40.2ZM408.07 41.2V65.6H410.07V41.2H408.07ZM409.07 66.6H422.27V64.6H409.07V66.6ZM422.27 66.6C427.265 66.6 431.233 65.5073 434.014 63.1649L432.726 61.6351C430.441 63.5593 427.009 64.6 422.27 64.6V66.6ZM434.014 63.1649C436.812 60.8089 438.17 57.5068 438.17 53.4H436.17C436.17 57.0266 434.995 59.7245 432.726 61.6351L434.014 63.1649ZM511.005 98L510.183 98.5692L510.482 99H511.005V98ZM497.505 78.5L498.328 77.9308L498.029 77.5H497.505V78.5ZM482.605 78.5V77.5H481.605V78.5H482.605ZM482.605 98V99H483.605V98H482.605ZM466.405 98H465.405V99H466.405V98ZM466.405 28V27H465.405V28H466.405ZM512.805 31.1L512.391 32.0099L512.396 32.0122L512.805 31.1ZM523.305 66.9L522.473 66.3453L522.471 66.3487L523.305 66.9ZM512.705 75.5L512.307 74.5829L511.186 75.0701L511.885 76.0722L512.705 75.5ZM528.405 98V99H530.323L529.226 97.4278L528.405 98ZM506.905 44.4L506.261 45.1649L506.267 45.1699L506.273 45.1749L506.905 44.4ZM482.605 41.2V40.2H481.605V41.2H482.605ZM482.605 65.6H481.605V66.6H482.605V65.6ZM506.905 62.4L507.55 63.1649L506.905 62.4ZM511.828 97.4308L498.328 77.9308L496.683 79.0692L510.183 98.5692L511.828 97.4308ZM497.505 77.5H496.705V79.5H497.505V77.5ZM496.705 77.5L482.605 77.5V79.5L496.705 79.5V77.5ZM481.605 78.5V98H483.605V78.5H481.605ZM482.605 97H466.405V99H482.605V97ZM467.405 98V28H465.405V98H467.405ZM466.405 29L496.705 29V27L466.405 27V29ZM496.705 29C502.796 29 508.015 30.0153 512.391 32.0099L513.22 30.1901C508.529 28.0514 503.015 27 496.705 27V29ZM512.396 32.0122C516.841 34.0093 520.216 36.8236 522.567 40.4445L524.244 39.3555C521.661 35.3764 517.97 32.3241 513.215 30.1878L512.396 32.0122ZM522.567 40.4445C524.913 44.0594 526.105 48.3639 526.105 53.4H528.105C528.105 48.036 526.831 43.3406 524.244 39.3555L522.567 40.4445ZM526.105 53.4C526.105 58.4308 524.883 62.7316 522.473 66.3453L524.138 67.4547C526.795 63.4684 528.105 58.7692 528.105 53.4H526.105ZM522.471 66.3487C520.124 69.9015 516.751 72.6505 512.307 74.5829L513.104 76.4171C517.86 74.3495 521.554 71.3652 524.14 67.4513L522.471 66.3487ZM511.885 76.0722L527.585 98.5722L529.226 97.4278L513.526 74.9278L511.885 76.0722ZM528.405 97H511.005V99H528.405V97ZM511.705 53.4C511.705 49.2337 510.351 45.9206 507.538 43.6251L506.273 45.1749C508.526 47.0127 509.705 49.6996 509.705 53.4H511.705ZM507.55 43.6351C504.768 41.2927 500.8 40.2 495.805 40.2V42.2C500.544 42.2 503.976 43.2407 506.261 45.1649L507.55 43.6351ZM495.805 40.2H482.605V42.2H495.805V40.2ZM481.605 41.2V65.6H483.605V41.2H481.605ZM482.605 66.6L495.805 66.6V64.6L482.605 64.6V66.6ZM495.805 66.6C500.8 66.6 504.768 65.5073 507.55 63.1649L506.261 61.6351C503.976 63.5593 500.544 64.6 495.805 64.6V66.6ZM507.55 63.1649C510.347 60.8089 511.705 57.5068 511.705 53.4H509.705C509.705 57.0266 508.53 59.7245 506.261 61.6351L507.55 63.1649Z" fill="white" fill-opacity="0.3"/>
<mask id="mask0_3_8315" style="mask-type:alpha" maskUnits="userSpaceOnUse" x="8" y="28" width="521" height="70">
<path d="M8.3 28L8.3 27H7.3V28H8.3ZM24.5 28H25.5V27H24.5V28ZM24.5 84.8H23.5V85.8H24.5V84.8ZM59.6 84.8H60.6V83.8H59.6V84.8ZM59.6 98V99H60.6V98H59.6ZM8.3 98H7.3V99H8.3V98ZM8.3 29L24.5 29V27L8.3 27L8.3 29ZM23.5 28L23.5 84.8H25.5L25.5 28H23.5ZM24.5 85.8L59.6 85.8V83.8L24.5 83.8V85.8ZM58.6 84.8V98H60.6V84.8H58.6ZM59.6 97L8.3 97V99L59.6 99V97ZM9.3 98L9.3 28H7.3L7.3 98H9.3ZM68.6516 28V27H67.6516V28H68.6516ZM84.8516 28H85.8516V27H84.8516V28ZM84.8516 98V99H85.8516V98H84.8516ZM68.6516 98H67.6516V99H68.6516V98ZM68.6516 29L84.8516 29V27L68.6516 27V29ZM83.8516 28L83.8516 98H85.8516L85.8516 28H83.8516ZM84.8516 97H68.6516V99H84.8516V97ZM69.6516 98L69.6516 28H67.6516L67.6516 98H69.6516ZM155.664 85H156.664V84H155.664V85ZM155.664 98V99H156.664V98H155.664ZM101.464 98H100.464V99H101.464V98ZM101.464 28V27H100.464V28H101.464ZM154.364 28H155.364V27H154.364V28ZM154.364 41V42L155.364 42V41L154.364 41ZM117.564 41V40H116.564V41H117.564ZM117.564 56.2H116.564V57.2H117.564V56.2ZM150.064 56.2H151.064V55.2H150.064V56.2ZM150.064 68.8V69.8H151.064V68.8H150.064ZM117.564 68.8V67.8H116.564V68.8H117.564ZM117.564 85H116.564V86H117.564V85ZM154.664 85L154.664 98H156.664L156.664 85H154.664ZM155.664 97L101.464 97V99L155.664 99V97ZM102.464 98L102.464 28H100.464L100.464 98H102.464ZM101.464 29L154.364 29V27L101.464 27V29ZM153.364 28V41L155.364 41V28H153.364ZM154.364 40H117.564V42H154.364V40ZM116.564 41L116.564 56.2H118.564L118.564 41H116.564ZM117.564 57.2H150.064V55.2H117.564V57.2ZM149.064 56.2V68.8H151.064V56.2H149.064ZM150.064 67.8L117.564 67.8V69.8L150.064 69.8V67.8ZM116.564 68.8V85H118.564V68.8H116.564ZM117.564 86L155.664 86V84L117.564 84V86ZM219.954 61.6L219.491 60.7138L217.36 61.8275L219.652 62.5533L219.954 61.6ZM229.354 68L228.556 68.6029L228.563 68.6114L229.354 68ZM225.554 93.1L226.122 93.923L226.124 93.9214L225.554 93.1ZM168.554 98H167.554V99H168.554V98ZM168.554 28V27H167.554V28H168.554ZM222.354 32.9L221.769 33.7113L221.775 33.7153L222.354 32.9ZM226.754 55.3L225.906 54.77L225.901 54.7777L225.896 54.7855L226.754 55.3ZM184.654 40.2V39.2H183.654V40.2H184.654ZM184.654 56.7H183.654V57.7H184.654V56.7ZM209.854 42.3L209.293 43.1279L209.302 43.1342L209.312 43.1403L209.854 42.3ZM213.154 83.7L212.617 82.8563L212.605 82.864L213.154 83.7ZM184.654 68.5V67.5H183.654V68.5H184.654ZM184.654 85.8H183.654V86.8H184.654V85.8ZM219.652 62.5533C223.478 63.765 226.429 65.7872 228.556 68.6028L230.152 67.3972C227.746 64.2128 224.43 61.9683 220.256 60.6467L219.652 62.5533ZM228.563 68.6114C230.672 71.3412 231.754 74.7491 231.754 78.9H233.754C233.754 74.3843 232.569 70.5255 230.145 67.3885L228.563 68.6114ZM231.754 78.9C231.754 84.7249 229.499 89.1429 224.984 92.2786L226.124 93.9214C231.209 90.3904 233.754 85.3417 233.754 78.9H231.754ZM224.986 92.277C220.492 95.3787 213.794 97 204.754 97V99C213.98 99 221.15 97.3546 226.122 93.923L224.986 92.277ZM204.754 97H168.554V99H204.754V97ZM169.554 98L169.554 28H167.554L167.554 98H169.554ZM168.554 29L202.754 29V27L168.554 27V29ZM202.754 29C211.181 29 217.475 30.6166 221.769 33.7113L222.939 32.0887C218.167 28.6501 211.393 27 202.754 27V29ZM221.775 33.7153C226.113 36.7961 228.254 40.9268 228.254 46.2H230.254C230.254 40.2732 227.795 35.5372 222.933 32.0847L221.775 33.7153ZM228.254 46.2C228.254 49.4284 227.465 52.2752 225.906 54.77L227.602 55.83C229.376 52.9915 230.254 49.7716 230.254 46.2H228.254ZM225.896 54.7855C224.397 57.2841 222.272 59.26 219.491 60.7138L220.417 62.4862C223.503 60.8733 225.911 58.6492 227.611 55.8145L225.896 54.7855ZM183.654 40.2V56.7H185.654V40.2H183.654ZM184.654 57.7L200.754 57.7V55.7L184.654 55.7V57.7ZM200.754 57.7C204.844 57.7 208.11 56.9891 210.415 55.4279L209.293 53.7721C207.464 55.0109 204.664 55.7 200.754 55.7V57.7ZM210.415 55.4279C212.785 53.822 213.954 51.428 213.954 48.4H211.954C211.954 50.8387 211.056 52.578 209.293 53.7721L210.415 55.4279ZM213.954 48.4C213.954 45.3717 212.784 43.0002 210.396 41.4597L209.312 43.1403C211.057 44.2664 211.954 45.9616 211.954 48.4H213.954ZM210.415 41.4721C208.11 39.9109 204.844 39.2 200.754 39.2V41.2C204.664 41.2 207.464 41.8891 209.293 43.1279L210.415 41.4721ZM200.754 39.2L184.654 39.2V41.2L200.754 41.2V39.2ZM203.554 86.8C207.898 86.8 211.33 86.093 213.703 84.536L212.605 82.864C210.711 84.1069 207.743 84.8 203.554 84.8V86.8ZM213.691 84.5437C216.219 82.9345 217.454 80.4247 217.454 77.2H215.454C215.454 79.8419 214.488 81.6655 212.617 82.8563L213.691 84.5437ZM217.454 77.2C217.454 74.0136 216.25 71.5062 213.788 69.8459C211.396 68.233 207.935 67.5 203.554 67.5V69.5C207.773 69.5 210.761 70.217 212.67 71.5041C214.508 72.7438 215.454 74.5864 215.454 77.2H217.454ZM203.554 67.5H184.654V69.5H203.554V67.5ZM183.654 68.5V85.8H185.654V68.5H183.654ZM184.654 86.8H203.554V84.8H184.654V86.8ZM309.219 28H310.219V27H309.219V28ZM309.219 98V99L310.219 99V98L309.219 98ZM293.019 98H292.019V99H293.019V98ZM293.019 69.3H294.019V68.3H293.019V69.3ZM261.219 69.3V68.3H260.219V69.3H261.219ZM261.219 98V99H262.219V98H261.219ZM245.019 98H244.019V99H245.019V98ZM245.019 28V27H244.019V28H245.019ZM261.219 28H262.219V27H261.219V28ZM261.219 55.6H260.219V56.6H261.219V55.6ZM293.019 55.6V56.6H294.019V55.6H293.019ZM293.019 28V27H292.019V28H293.019ZM308.219 28V98L310.219 98V28H308.219ZM309.219 97H293.019V99H309.219V97ZM294.019 98V69.3H292.019V98H294.019ZM293.019 68.3H261.219V70.3H293.019V68.3ZM260.219 69.3V98H262.219V69.3H260.219ZM261.219 97H245.019V99H261.219V97ZM246.019 98L246.019 28H244.019L244.019 98H246.019ZM245.019 29L261.219 29V27L245.019 27V29ZM260.219 28V55.6H262.219V28H260.219ZM261.219 56.6L293.019 56.6V54.6L261.219 54.6V56.6ZM294.019 55.6V28H292.019V55.6H294.019ZM293.019 29L309.219 29V27L293.019 27V29ZM379.98 85H380.98V84H379.98V85ZM379.98 98V99H380.98V98H379.98ZM325.78 98H324.78V99H325.78V98ZM325.78 28V27H324.78V28H325.78ZM378.68 28H379.68V27H378.68V28ZM378.68 41V42H379.68V41H378.68ZM341.88 41V40H340.88V41H341.88ZM341.88 56.2H340.88V57.2H341.88V56.2ZM374.38 56.2H375.38V55.2H374.38V56.2ZM374.38 68.8V69.8H375.38V68.8H374.38ZM341.88 68.8V67.8H340.88V68.8H341.88ZM341.88 85H340.88V86H341.88V85ZM378.98 85V98H380.98V85H378.98ZM379.98 97H325.78V99H379.98V97ZM326.78 98V28H324.78V98H326.78ZM325.78 29L378.68 29V27L325.78 27V29ZM377.68 28V41H379.68V28H377.68ZM378.68 40L341.88 40V42L378.68 42V40ZM340.88 41V56.2H342.88V41H340.88ZM341.88 57.2H374.38V55.2H341.88V57.2ZM373.38 56.2V68.8H375.38V56.2H373.38ZM374.38 67.8H341.88V69.8H374.38V67.8ZM340.88 68.8V85H342.88V68.8H340.88ZM341.88 86H379.98V84H341.88V86ZM437.47 98L436.648 98.5692L436.946 99H437.47V98ZM423.97 78.5L424.793 77.9308L424.494 77.5H423.97V78.5ZM409.07 78.5V77.5H408.07V78.5H409.07ZM409.07 98V99H410.07V98H409.07ZM392.87 98H391.87V99H392.87V98ZM392.87 28V27H391.87V28H392.87ZM439.27 31.1L438.855 32.0099L438.861 32.0122L439.27 31.1ZM449.77 66.9L448.938 66.3453L448.936 66.3487L449.77 66.9ZM439.17 75.5L438.772 74.5829L437.651 75.0701L438.35 76.0722L439.17 75.5ZM454.87 98V99H456.787L455.69 97.4278L454.87 98ZM433.37 44.4L432.726 45.1649L432.732 45.1699L432.738 45.1749L433.37 44.4ZM409.07 41.2V40.2H408.07V41.2H409.07ZM409.07 65.6H408.07V66.6H409.07V65.6ZM433.37 62.4L434.014 63.1649L433.37 62.4ZM438.293 97.4308L424.793 77.9308L423.148 79.0692L436.648 98.5692L438.293 97.4308ZM423.97 77.5H423.17V79.5H423.97V77.5ZM423.17 77.5H409.07V79.5H423.17V77.5ZM408.07 78.5V98H410.07V78.5H408.07ZM409.07 97L392.87 97V99L409.07 99V97ZM393.87 98V28H391.87V98H393.87ZM392.87 29L423.17 29V27L392.87 27V29ZM423.17 29C429.261 29 434.48 30.0153 438.855 32.0099L439.685 30.1901C434.994 28.0514 429.479 27 423.17 27V29ZM438.861 32.0122C443.306 34.0093 446.681 36.8236 449.032 40.4445L450.709 39.3555C448.126 35.3764 444.435 32.3241 439.68 30.1878L438.861 32.0122ZM449.032 40.4445C451.378 44.0594 452.57 48.3639 452.57 53.4H454.57C454.57 48.036 453.296 43.3406 450.709 39.3555L449.032 40.4445ZM452.57 53.4C452.57 58.4308 451.347 62.7316 448.938 66.3453L450.602 67.4547C453.26 63.4684 454.57 58.7692 454.57 53.4H452.57ZM448.936 66.3487C446.589 69.9015 443.216 72.6505 438.772 74.5829L439.569 76.4171C444.324 74.3495 448.019 71.3652 450.605 67.4513L448.936 66.3487ZM438.35 76.0722L454.05 98.5722L455.69 97.4278L439.99 74.9278L438.35 76.0722ZM454.87 97H437.47V99H454.87V97ZM438.17 53.4C438.17 49.2337 436.816 45.9206 434.002 43.6251L432.738 45.1749C434.991 47.0127 436.17 49.6996 436.17 53.4H438.17ZM434.014 43.6351C431.233 41.2927 427.265 40.2 422.27 40.2V42.2C427.009 42.2 430.441 43.2407 432.726 45.1649L434.014 43.6351ZM422.27 40.2L409.07 40.2V42.2L422.27 42.2V40.2ZM408.07 41.2V65.6H410.07V41.2H408.07ZM409.07 66.6H422.27V64.6H409.07V66.6ZM422.27 66.6C427.265 66.6 431.233 65.5073 434.014 63.1649L432.726 61.6351C430.441 63.5593 427.009 64.6 422.27 64.6V66.6ZM434.014 63.1649C436.812 60.8089 438.17 57.5068 438.17 53.4H436.17C436.17 57.0266 434.995 59.7245 432.726 61.6351L434.014 63.1649ZM511.005 98L510.183 98.5692L510.482 99H511.005V98ZM497.505 78.5L498.328 77.9308L498.029 77.5H497.505V78.5ZM482.605 78.5V77.5H481.605V78.5H482.605ZM482.605 98V99H483.605V98H482.605ZM466.405 98H465.405V99H466.405V98ZM466.405 28V27H465.405V28H466.405ZM512.805 31.1L512.391 32.0099L512.396 32.0122L512.805 31.1ZM523.305 66.9L522.473 66.3453L522.471 66.3487L523.305 66.9ZM512.705 75.5L512.307 74.5829L511.186 75.0701L511.885 76.0722L512.705 75.5ZM528.405 98V99H530.323L529.226 97.4278L528.405 98ZM506.905 44.4L506.261 45.1649L506.267 45.1699L506.273 45.1749L506.905 44.4ZM482.605 41.2V40.2H481.605V41.2H482.605ZM482.605 65.6H481.605V66.6H482.605V65.6ZM506.905 62.4L507.55 63.1649L506.905 62.4ZM511.828 97.4308L498.328 77.9308L496.683 79.0692L510.183 98.5692L511.828 97.4308ZM497.505 77.5H496.705V79.5H497.505V77.5ZM496.705 77.5L482.605 77.5V79.5L496.705 79.5V77.5ZM481.605 78.5V98H483.605V78.5H481.605ZM482.605 97H466.405V99H482.605V97ZM467.405 98V28H465.405V98H467.405ZM466.405 29L496.705 29V27L466.405 27V29ZM496.705 29C502.796 29 508.015 30.0153 512.391 32.0099L513.22 30.1901C508.529 28.0514 503.015 27 496.705 27V29ZM512.396 32.0122C516.841 34.0093 520.216 36.8236 522.567 40.4445L524.244 39.3555C521.661 35.3764 517.97 32.3241 513.215 30.1878L512.396 32.0122ZM522.567 40.4445C524.913 44.0594 526.105 48.3639 526.105 53.4H528.105C528.105 48.036 526.831 43.3406 524.244 39.3555L522.567 40.4445ZM526.105 53.4C526.105 58.4308 524.883 62.7316 522.473 66.3453L524.138 67.4547C526.795 63.4684 528.105 58.7692 528.105 53.4H526.105ZM522.471 66.3487C520.124 69.9015 516.751 72.6505 512.307 74.5829L513.104 76.4171C517.86 74.3495 521.554 71.3652 524.14 67.4513L522.471 66.3487ZM511.885 76.0722L527.585 98.5722L529.226 97.4278L513.526 74.9278L511.885 76.0722ZM528.405 97H511.005V99H528.405V97ZM511.705 53.4C511.705 49.2337 510.351 45.9206 507.538 43.6251L506.273 45.1749C508.526 47.0127 509.705 49.6996 509.705 53.4H511.705ZM507.55 43.6351C504.768 41.2927 500.8 40.2 495.805 40.2V42.2C500.544 42.2 503.976 43.2407 506.261 45.1649L507.55 43.6351ZM495.805 40.2H482.605V42.2H495.805V40.2ZM481.605 41.2V65.6H483.605V41.2H481.605ZM482.605 66.6L495.805 66.6V64.6L482.605 64.6V66.6ZM495.805 66.6C500.8 66.6 504.768 65.5073 507.55 63.1649L506.261 61.6351C503.976 63.5593 500.544 64.6 495.805 64.6V66.6ZM507.55 63.1649C510.347 60.8089 511.705 57.5068 511.705 53.4H509.705C509.705 57.0266 508.53 59.7245 506.261 61.6351L507.55 63.1649Z" fill="black" fill-opacity="0.5"/>
</mask>
<g mask="url(#mask0_3_8315)">
<rect x="-15" y="63" width="554" height="48.3793" fill="black" fill-opacity="0.5"/>
</g>
</svg>
