<svg width="169" height="92" viewBox="0 0 169 92" fill="none" xmlns="http://www.w3.org/2000/svg">
<rect y="3.05176e-05" width="169" height="91.3852" fill="#2D2D2D"/>
<path d="M6.78603 72.3983L6.22815 74.3466L20.8239 74.3345C21.3429 74.3345 21.6023 74.516 21.6023 74.8791C21.6023 74.9678 21.585 75.0686 21.5504 75.1816L21.1872 76.3917C21.0315 76.9565 20.6336 77.2388 19.9936 77.2388H5.72216C3.82796 77.2388 2.88086 76.5531 2.88086 75.1816C2.88086 74.8266 2.94573 74.4232 3.07547 73.9715L4.81398 67.9207C5.43674 65.7425 6.94172 64.6533 9.32893 64.6533H23.6263C24.1366 64.6533 24.3917 64.8308 24.3917 65.1858C24.3917 65.2746 24.3744 65.3754 24.3398 65.4883L23.9766 66.7106C23.8122 67.2753 23.41 67.5577 22.77 67.5577H8.16128L7.60339 69.4939H22.2121C22.7311 69.4939 22.9906 69.6754 22.9906 70.0385C22.9906 70.1272 22.9733 70.2281 22.9387 70.341L22.6013 71.5512C22.437 72.1159 22.0305 72.3983 21.3818 72.3983H6.78603Z" fill="white"/>
<path d="M27.6612 67.5456L27.0903 69.4939H39.4027L39.9735 67.5577L27.6612 67.5456ZM26.273 72.3983L25.7021 74.3345H38.0144L38.5853 72.3983H26.273ZM25.0015 65.5004C25.1572 64.9357 25.5637 64.6533 26.2211 64.6533H40.4795C42.3651 64.6533 43.3078 65.3391 43.3078 66.7106C43.3078 67.0656 43.243 67.4689 43.1132 67.9207L42.9446 68.5258C42.564 69.8247 41.9931 70.6315 41.232 70.9461C41.5866 71.1397 41.7639 71.5108 41.7639 72.0594C41.7639 72.4225 41.6904 72.8581 41.5434 73.3664L41.3617 73.9715C40.739 76.1497 39.2383 77.2388 36.8598 77.2388H22.6013C22.0824 77.2308 21.8229 77.0452 21.8229 76.6822C21.8229 76.5934 21.8359 76.4966 21.8618 76.3917L25.0015 65.5004Z" fill="white"/>
<path d="M47.1222 67.5456L46.201 70.7041H58.5134L59.4345 67.5577L47.1222 67.5456ZM44.4625 65.5004C44.6268 64.9357 45.029 64.6533 45.6691 64.6533H59.9405C61.826 64.6533 62.7688 65.3391 62.7688 66.7106C62.7688 67.0656 62.7039 67.4689 62.5742 67.9207L61.8606 70.341C61.2379 72.5193 59.7372 73.6084 57.3587 73.6084H45.3707L44.5663 76.3917C44.4106 76.9565 44.0084 77.2388 43.3597 77.2388H42.0623C41.5434 77.2388 41.2839 77.0533 41.2839 76.6822C41.2839 76.6015 41.2969 76.5047 41.3228 76.3917L44.4625 65.5004Z" fill="white"/>
<path d="M66.5832 67.5456L64.6371 74.3345L76.9494 74.3466L78.9085 67.5577L66.5832 67.5456ZM79.4015 64.6533C81.287 64.6533 82.2298 65.3391 82.2298 66.7106C82.2298 67.0656 82.1649 67.4689 82.0352 67.9207L80.2967 73.9715C79.6739 76.1497 78.1733 77.2388 75.7947 77.2388H64.1181C62.2326 77.2388 61.2898 76.5531 61.2898 75.1816C61.2898 74.8266 61.3547 74.4232 61.4844 73.9715L63.2229 67.9207C63.8457 65.7425 65.3506 64.6533 67.7379 64.6533H79.4015Z" fill="white"/>
<path d="M84.5781 72.604L83.4883 76.3917C83.3326 76.9565 82.9304 77.2388 82.2817 77.2388H80.9843C80.4653 77.2388 80.2059 77.0533 80.2059 76.6822C80.2059 76.6015 80.2188 76.5047 80.2448 76.3917L83.3715 65.5126C83.5445 64.9478 83.951 64.6654 84.5911 64.6654H85.8885C86.4074 64.6654 86.6669 64.847 86.6669 65.21C86.6669 65.2988 86.6496 65.3996 86.615 65.5126L85.5382 69.2882C85.4863 69.3285 85.4603 69.3608 85.4603 69.385V69.3971C85.4603 69.4052 85.4647 69.4092 85.4733 69.4092C85.5512 69.4092 85.7371 69.3487 86.0312 69.2277L96.8256 64.6533H103.183L88.5611 70.9461L99.576 77.2388H93.2188L85.0452 72.6645C84.8203 72.5435 84.6689 72.483 84.5911 72.483C84.5738 72.483 84.5608 72.491 84.5522 72.5072C84.5522 72.5314 84.5608 72.5636 84.5781 72.604Z" fill="white"/>
<path d="M105.505 67.5456L104.584 70.7041H116.896L117.817 67.5577L105.505 67.5456ZM102.845 65.5004C103.01 64.9357 103.412 64.6533 104.052 64.6533H118.323C120.209 64.6533 121.152 65.3391 121.152 66.7106C121.152 67.0656 121.087 67.4689 120.957 67.9207L120.244 70.341C119.621 72.5193 118.12 73.6084 115.742 73.6084H103.754L102.949 76.3917C102.794 76.9565 102.391 77.2388 101.743 77.2388H100.445C99.9263 77.2388 99.6669 77.0533 99.6669 76.6822C99.6669 76.6015 99.6798 76.5047 99.7058 76.3917L102.845 65.5004Z" fill="white"/>
<path d="M124.81 74.8186L122.371 77.2388H118.713L129.494 66.6017C130.783 65.3028 132.033 64.6533 133.244 64.6533C134.454 64.6533 135.341 65.3028 135.903 66.6017L140.561 77.2388H136.902L135.838 74.8186H124.81ZM134.567 71.9142L132.517 67.2188L127.769 71.9142H134.567Z" fill="white"/>
<path d="M145.634 72.3983L144.479 76.3917C144.323 76.9565 143.921 77.2388 143.272 77.2388H141.975C141.456 77.2388 141.197 77.0533 141.197 76.6822C141.197 76.6015 141.21 76.5047 141.236 76.3917L144.427 65.2584H144.44C144.553 64.855 144.933 64.6533 145.582 64.6533H146.879C147.398 64.6533 147.658 64.8389 147.658 65.21C147.658 65.2907 147.645 65.3875 147.619 65.5004L146.464 69.4939H158.789L160.009 65.2584H160.022C160.134 64.855 160.515 64.6533 161.164 64.6533H162.461C162.98 64.6533 163.239 64.8389 163.239 65.21C163.239 65.2907 163.226 65.3875 163.201 65.5004L160.061 76.3917C159.905 76.9565 159.503 77.2388 158.854 77.2388H157.557C157.038 77.2388 156.778 77.0533 156.778 76.6822C156.778 76.6015 156.791 76.5047 156.817 76.3917L157.972 72.3983H145.634Z" fill="white"/>
<path fill-rule="evenodd" clip-rule="evenodd" d="M114.349 33.4532C114.349 44.1942 100.47 52.9015 83.3499 52.9015C66.2295 52.9015 52.3507 44.1942 52.3507 33.4532C52.3507 22.7121 66.2295 14.0048 83.3499 14.0048C100.47 14.0048 114.349 22.7121 114.349 33.4532ZM101.683 45.5687H96.3382L83.6236 38.4542C83.2738 38.266 83.0384 38.1719 82.9173 38.1719C82.8904 38.1719 82.8702 38.1844 82.8567 38.2095C82.8567 38.2472 82.8702 38.2973 82.8971 38.3601L81.2018 44.2512C80.9596 45.1295 80.334 45.5687 79.3249 45.5687H77.3067C76.4995 45.5687 76.0958 45.2801 76.0958 44.7029C76.0958 44.5774 76.116 44.4269 76.1564 44.2512L77.4999 39.5773H57.8095C59.0777 41.3824 60.9199 43.0841 63.3178 44.5885C68.298 47.713 75.3704 49.7477 83.3499 49.7477C90.4609 49.7477 96.8516 48.1318 101.683 45.5687ZM64.2102 21.7825C69.126 18.9629 75.8358 17.1586 83.3499 17.1586C91.3294 17.1586 98.4018 19.1934 103.382 22.3179C105.18 23.4457 106.665 24.6844 107.83 25.9944H101.949L85.1574 33.1089C84.7 33.2971 84.4107 33.3912 84.2896 33.3912C84.2762 33.3912 84.2695 33.385 84.2695 33.3724V33.3536C84.2695 33.3159 84.3098 33.2657 84.3905 33.203L86.0656 27.3307C86.1194 27.1551 86.1464 26.9982 86.1464 26.8602C86.1464 26.2955 85.7427 26.0132 84.9354 26.0132H82.9173C81.9216 26.0132 81.2893 26.4524 81.0202 27.3307L80.6477 28.6267H60.2759L61.0648 25.889H81.7236C82.6287 25.889 83.1975 25.4898 83.4299 24.6913L83.9436 22.9631C83.9925 22.8034 84.017 22.6608 84.017 22.5354C84.017 22.0335 83.6562 21.7825 82.9345 21.7825H64.2102ZM108.854 27.2782L89.0929 35.7815L103.912 44.2465C108.566 41.1632 110.967 37.3105 110.967 33.4532C110.967 31.3523 110.255 29.2528 108.854 27.2782ZM59.12 32.7332L58.3311 35.4879L78.6802 35.4711L79.4673 32.7332H59.12Z" fill="white"/>
</svg>
