<svg width="160" height="25" viewBox="0 0 160 25" fill="none" xmlns="http://www.w3.org/2000/svg">
<path fill-rule="evenodd" clip-rule="evenodd" d="M7.465 1.566C8.638 1.512 9.012 1.5 12 1.5C14.988 1.5 15.362 1.513 16.534 1.566C17.706 1.619 18.506 1.806 19.206 2.077C19.939 2.354 20.604 2.787 21.154 3.347C21.714 3.896 22.146 4.56 22.422 5.294C22.694 5.994 22.88 6.794 22.934 7.964C22.988 9.139 23 9.513 23 12.5C23 15.488 22.987 15.862 22.934 17.035C22.881 18.205 22.694 19.005 22.422 19.705C22.146 20.4391 21.7133 21.1042 21.154 21.654C20.604 22.214 19.939 22.646 19.206 22.922C18.506 23.194 17.706 23.38 16.536 23.434C15.362 23.488 14.988 23.5 12 23.5C9.012 23.5 8.638 23.487 7.465 23.434C6.295 23.381 5.495 23.194 4.795 22.922C4.06092 22.646 3.39582 22.2133 2.846 21.654C2.28638 21.1047 1.85331 20.4399 1.577 19.706C1.306 19.006 1.12 18.206 1.066 17.036C1.012 15.861 1 15.487 1 12.5C1 9.512 1.013 9.138 1.066 7.966C1.119 6.794 1.306 5.994 1.577 5.294C1.85372 4.56008 2.28712 3.89531 2.847 3.346C3.39604 2.7865 4.06047 2.35344 4.794 2.077C5.494 1.806 6.294 1.62 7.464 1.566H7.465ZM16.445 3.546C15.285 3.493 14.937 3.482 12 3.482C9.063 3.482 8.715 3.493 7.555 3.546C6.482 3.595 5.9 3.774 5.512 3.925C4.999 4.125 4.632 4.362 4.247 4.747C3.88205 5.10205 3.60118 5.53428 3.425 6.012C3.274 6.4 3.095 6.982 3.046 8.055C2.993 9.215 2.982 9.563 2.982 12.5C2.982 15.437 2.993 15.785 3.046 16.945C3.095 18.018 3.274 18.6 3.425 18.988C3.601 19.465 3.882 19.898 4.247 20.253C4.602 20.618 5.035 20.899 5.512 21.075C5.9 21.226 6.482 21.405 7.555 21.454C8.715 21.507 9.062 21.518 12 21.518C14.938 21.518 15.285 21.507 16.445 21.454C17.518 21.405 18.1 21.226 18.488 21.075C19.001 20.875 19.368 20.638 19.753 20.253C20.118 19.898 20.399 19.465 20.575 18.988C20.726 18.6 20.905 18.018 20.954 16.945C21.007 15.785 21.018 15.437 21.018 12.5C21.018 9.563 21.007 9.215 20.954 8.055C20.905 6.982 20.726 6.4 20.575 6.012C20.375 5.499 20.138 5.132 19.753 4.747C19.3979 4.38207 18.9657 4.10121 18.488 3.925C18.1 3.774 17.518 3.595 16.445 3.546ZM10.595 15.891C11.3797 16.2176 12.2534 16.2617 13.0669 16.0157C13.8805 15.7697 14.5834 15.2489 15.0556 14.5422C15.5278 13.8356 15.7401 12.9869 15.656 12.1411C15.572 11.2953 15.197 10.505 14.595 9.905C14.2112 9.52148 13.7472 9.22781 13.2363 9.04515C12.7255 8.86248 12.1804 8.79536 11.6405 8.84862C11.1006 8.90187 10.5792 9.07418 10.1138 9.35313C9.64845 9.63208 9.25074 10.0107 8.9493 10.4619C8.64786 10.913 8.45019 11.4253 8.37052 11.962C8.29084 12.4986 8.33115 13.0463 8.48854 13.5655C8.64593 14.0847 8.91648 14.5626 9.28072 14.9647C9.64496 15.3668 10.0938 15.6832 10.595 15.891ZM8.002 8.502C8.52702 7.97697 9.15032 7.5605 9.8363 7.27636C10.5223 6.99222 11.2575 6.84597 12 6.84597C12.7425 6.84597 13.4777 6.99222 14.1637 7.27636C14.8497 7.5605 15.473 7.97697 15.998 8.502C16.523 9.02702 16.9395 9.65032 17.2236 10.3363C17.5078 11.0223 17.654 11.7575 17.654 12.5C17.654 13.2425 17.5078 13.9777 17.2236 14.6637C16.9395 15.3497 16.523 15.973 15.998 16.498C14.9377 17.5583 13.4995 18.154 12 18.154C10.5005 18.154 9.06234 17.5583 8.002 16.498C6.94166 15.4377 6.34597 13.9995 6.34597 12.5C6.34597 11.0005 6.94166 9.56234 8.002 8.502ZM18.908 7.688C19.0381 7.56527 19.1423 7.41768 19.2143 7.25397C19.2863 7.09027 19.3248 6.91377 19.3274 6.73493C19.33 6.55609 19.2967 6.37855 19.2295 6.21281C19.1622 6.04707 19.0624 5.89651 18.936 5.77004C18.8095 5.64357 18.6589 5.54376 18.4932 5.47652C18.3275 5.40928 18.1499 5.37598 17.9711 5.37858C17.7922 5.38119 17.6157 5.41965 17.452 5.4917C17.2883 5.56374 17.1407 5.6679 17.018 5.798C16.7793 6.05103 16.6486 6.38712 16.6537 6.73493C16.6588 7.08274 16.7992 7.41488 17.0452 7.66084C17.2911 7.90681 17.6233 8.04723 17.9711 8.0523C18.3189 8.05737 18.655 7.92669 18.908 7.688Z" fill="#D3D3D3"/>
<path d="M46 2C40.2016 2 35.5 6.70156 35.5 12.5C35.5 18.2984 40.2016 23 46 23C51.7984 23 56.5 18.2984 56.5 12.5C56.5 6.70156 51.7984 2 46 2ZM51.0461 9.91484C51.0531 10.025 51.0531 10.1398 51.0531 10.2523C51.0531 13.693 48.4328 17.6562 43.6445 17.6562C42.168 17.6562 40.7992 17.2273 39.6461 16.4891C39.857 16.5125 40.0586 16.5219 40.2742 16.5219C41.493 16.5219 42.6133 16.1094 43.5063 15.4109C42.3625 15.3875 41.4016 14.6375 41.0734 13.6063C41.4742 13.6648 41.8352 13.6648 42.2477 13.5594C41.6587 13.4397 41.1294 13.1199 40.7496 12.6542C40.3697 12.1885 40.1629 11.6056 40.1641 11.0047V10.9719C40.5086 11.1664 40.9141 11.2859 41.3383 11.3023C40.9817 11.0647 40.6892 10.7427 40.4868 10.3649C40.2844 9.98715 40.1784 9.56528 40.1781 9.13672C40.1781 8.65156 40.3047 8.20859 40.532 7.82422C41.1857 8.62891 42.0014 9.28705 42.9261 9.75586C43.8508 10.2247 44.8638 10.4936 45.8992 10.5453C45.5312 8.77578 46.8531 7.34375 48.4422 7.34375C49.1922 7.34375 49.8672 7.65781 50.343 8.16406C50.9312 8.05391 51.4937 7.83359 51.9953 7.53828C51.8008 8.14062 51.393 8.64922 50.8516 8.97031C51.3766 8.91406 51.8828 8.76875 52.3516 8.56484C51.9977 9.08516 51.5547 9.54688 51.0461 9.91484Z" fill="#D3D3D3"/>
<g clip-path="url(#clip0_3_8744)">
<path fill-rule="evenodd" clip-rule="evenodd" d="M85.415 14.882C85.117 14.733 83.656 14.015 83.384 13.915C83.112 13.816 82.914 13.767 82.715 14.065C82.517 14.361 81.948 15.031 81.775 15.229C81.601 15.428 81.428 15.452 81.131 15.304C80.834 15.154 79.876 14.841 78.741 13.829C77.858 13.041 77.261 12.068 77.088 11.77C76.915 11.473 77.069 11.312 77.218 11.164C77.352 11.031 77.515 10.817 77.664 10.644C77.813 10.47 77.862 10.346 77.961 10.147C78.061 9.949 78.011 9.776 77.936 9.627C77.862 9.478 77.268 8.015 77.02 7.42C76.779 6.841 76.534 6.92 76.352 6.91C76.178 6.902 75.98 6.9 75.782 6.9C75.584 6.9 75.262 6.974 74.99 7.272C74.717 7.569 73.95 8.288 73.95 9.751C73.95 11.213 75.014 12.626 75.163 12.825C75.312 13.023 77.258 16.025 80.239 17.312C80.949 17.618 81.502 17.801 81.933 17.937C82.645 18.164 83.293 18.132 83.805 18.055C84.375 17.97 85.563 17.336 85.811 16.642C86.058 15.948 86.058 15.353 85.984 15.229C85.91 15.105 85.712 15.031 85.414 14.882H85.415ZM79.993 22.285H79.989C78.2184 22.2853 76.4804 21.8094 74.957 20.907L74.597 20.693L70.855 21.675L71.854 18.027L71.619 17.653C70.6291 16.0773 70.1053 14.2538 70.108 12.393C70.11 6.943 74.544 2.509 79.997 2.509C82.637 2.509 85.119 3.539 86.985 5.407C87.9054 6.32358 88.6349 7.41356 89.1313 8.6139C89.6277 9.81423 89.8811 11.1011 89.877 12.4C89.875 17.85 85.441 22.285 79.993 22.285ZM88.405 3.988C87.3032 2.87892 85.9922 1.99954 84.5481 1.4008C83.1039 0.802063 81.5553 0.495882 79.992 0.499999C73.438 0.499999 68.102 5.835 68.1 12.392C68.099 14.488 68.646 16.534 69.687 18.337L68 24.5L74.304 22.846C76.0479 23.7961 78.0021 24.294 79.988 24.294H79.993C86.547 24.294 91.883 18.959 91.885 12.401C91.8898 10.8383 91.5848 9.2901 90.9874 7.84603C90.3901 6.40197 89.5124 5.09067 88.405 3.988Z" fill="#D3D3D3"/>
</g>
<path d="M117.684 0.5H110.316C103.594 0.5 102 2.0937 102 8.81649V16.1835C102 22.9063 103.594 24.5 110.316 24.5H117.684C124.406 24.5 126 22.9063 126 16.1835V8.81649C126 2.0937 124.391 0.5 117.684 0.5ZM121.375 17.6205H119.633C118.973 17.6205 118.769 17.097 117.582 15.894C116.551 14.8943 116.094 14.7616 115.84 14.7616C115.481 14.7616 115.379 14.8628 115.379 15.3555V16.9297C115.379 17.352 115.246 17.6055 114.129 17.6055C112.281 17.6055 110.23 16.488 108.793 14.4061C106.624 11.3552 106.031 9.06998 106.031 8.5975C106.031 8.34326 106.132 8.10551 106.621 8.10551H108.367C108.808 8.10551 108.976 8.30876 109.148 8.78124C110.011 11.2734 111.449 13.4566 112.042 13.4566C112.261 13.4566 112.362 13.3553 112.362 12.7966V10.2227C112.296 9.03548 111.671 8.93349 111.671 8.512C111.671 8.30876 111.839 8.10551 112.108 8.10551H114.854C115.225 8.10551 115.362 8.30876 115.362 8.74599V12.2184C115.362 12.5934 115.53 12.7261 115.631 12.7261C115.85 12.7261 116.037 12.5934 116.443 12.1869C117.697 10.7807 118.595 8.6125 118.595 8.6125C118.712 8.35825 118.916 8.12051 119.357 8.12051H121.103C121.627 8.12051 121.744 8.38975 121.627 8.76474C121.408 9.78021 119.271 12.7959 119.271 12.7959C119.087 13.1004 119.017 13.2331 119.271 13.5728C119.459 13.8271 120.068 14.3543 120.474 14.8268C121.22 15.6743 121.794 16.3853 121.947 16.8772C122.119 17.3655 121.865 17.6197 121.373 17.6197L121.375 17.6205Z" fill="#D3D3D3"/>
<path d="M137.902 16.8477V14L136 8.89772H136.957L138.355 12.836L139.969 8.07422H140.848L138.777 14.0315V16.8485L137.902 16.8477ZM143.539 16.8477H142.805C142.768 16.7012 142.743 16.552 142.73 16.4015H142.676C142.43 16.7142 142.113 16.9257 141.621 16.9257C140.823 16.9257 140.277 16.3235 140.277 15.2225C140.277 14.0225 140.891 13.2657 142.461 13.2657H142.581V12.9335C142.581 12.1985 142.335 11.8865 141.847 11.8865C141.401 11.8865 141.022 12.1205 140.733 12.3747L140.565 11.609C140.823 11.3982 141.336 11.1642 141.901 11.1642C142.894 11.1642 143.437 11.5865 143.437 12.9455V15.5787C143.437 16.1135 143.491 16.583 143.534 16.8485L143.539 16.8477ZM142.586 13.9257H142.484C141.402 13.9257 141.172 14.402 141.172 15.125C141.172 15.77 141.383 16.1907 141.824 16.1907C142.124 16.1907 142.426 15.992 142.582 15.746L142.586 13.9257ZM145.387 16.8477H144.52V11.2265H145.387V11.7185H145.441C145.598 11.5077 146.02 11.1635 146.543 11.1635C147.277 11.1635 147.664 11.5737 147.664 12.4295V16.8477H146.785V12.5075C146.785 12.0852 146.598 11.9375 146.262 11.9375C145.898 11.9375 145.59 12.2187 145.387 12.4955V16.8477ZM148.523 14.258C148.523 12.176 149.3 11.1642 150.422 11.1642C150.691 11.1642 150.968 11.2542 151.136 11.375V8.89772H152.003V16.8477H151.359L151.289 16.4015H151.234C150.992 16.7142 150.68 16.9257 150.223 16.9257C149.121 16.9257 148.523 15.992 148.523 14.258ZM151.137 12.1407C150.961 11.9645 150.77 11.8745 150.48 11.8745C149.781 11.8745 149.445 12.9335 149.445 14.0772C149.445 15.3905 149.691 16.19 150.328 16.19C150.762 16.19 150.992 15.9792 151.137 15.7572V12.1407ZM154.742 16.9257C153.586 16.9257 152.87 16.004 152.87 14.2805C152.87 12.4767 153.371 11.1635 154.562 11.1635C155.496 11.1635 156.104 11.8625 156.104 13.7697V14.246H153.773C153.773 15.5157 154.129 16.1802 154.82 16.1802C155.309 16.1802 155.668 15.9612 155.887 15.8052L156.09 16.469C155.707 16.7714 155.231 16.9327 154.743 16.9257H154.742ZM153.785 13.5312H155.219C155.219 12.5742 155.062 11.8752 154.562 11.8752C154.031 11.8752 153.844 12.5315 153.781 13.5312H153.785ZM159.879 11.2422L158.836 13.8672L160 16.8485H159.102L158.23 14.5355L157.387 16.8485H156.531L157.699 13.9452L156.641 11.2422H157.543L158.27 13.277L159.035 11.2422H159.879Z" fill="#D3D3D3"/>
<defs>
<clipPath id="clip0_3_8744">
<rect width="24" height="24" fill="white" transform="translate(68 0.5)"/>
</clipPath>
</defs>
</svg>
